USFL
nRows=191
nColumns=2
inDegrees=yes
endheader
time	med_gas_r	
2.56234	 40.632663	
2.62483	 40.637046	
2.68733	 40.629701	
2.74982	 40.685244	
2.81232	 40.771991	
2.87482	 40.777664	
2.93731	 40.818807	
2.99981	 40.795964	
3.0623	 40.820469	
3.1248	 40.785829	
3.1873	 40.800879	
3.24979	 40.763255	
3.31229	 40.788890	
3.37478	 40.798295	
3.43728	 40.823462	
3.49978	 40.780566	
3.56227	 40.742189	
3.62477	 40.705142	
3.68726	 40.659813	
3.74976	 40.704736	
3.81226	 40.658399	
3.87475	 40.676786	
3.93725	 40.611971	
3.99974	 40.636469	
4.06224	 40.601305	
4.12474	 40.711394	
4.18723	 40.646257	
4.24973	 40.611759	
4.31222	 40.594432	
4.37472	 40.603833	
4.43722	 40.621440	
4.49971	 40.603277	
4.56221	 40.625131	
4.6247	 40.653245	
4.6872	 40.710333	
4.7497	 38.010839	
4.81219	 37.856076	
4.87469	 37.747167	
4.93718	 37.743083	
4.99968	 37.743954	
5.06218	 37.645935	
5.12467	 37.602949	
5.18717	 34.194065	
5.24966	 34.224680	
5.31216	 34.195988	
5.37466	 34.130433	
5.43715	 34.042091	
5.49965	 34.009725	
5.56214	 33.915943	
5.62464	 33.858800	
5.68714	 33.744972	
5.74963	 33.709145	
5.81213	 33.742388	
5.87462	 33.718148	
5.93712	 33.725387	
5.99962	 33.748320	
6.06211	 33.756808	
6.12461	 33.684282	
6.1871	 33.637499	
6.2496	 33.602362	
6.3121	 33.620593	
6.37459	 33.612237	
6.43709	 33.603107	
6.49958	 33.673489	
6.56208	 33.672279	
6.62458	 33.740691	
6.68707	 33.715027	
6.74957	 33.512103	
6.81206	 33.506985	
6.87456	 33.611428	
6.93706	 33.628616	
6.99955	 33.569771	
7.06205	 33.410025	
7.12454	 33.347157	
7.18704	 33.268149	
7.24954	 33.183015	
7.31203	 33.099030	
7.37453	 33.053257	
7.43702	 32.952535	
7.49952	 32.917505	
7.56202	 32.824355	
7.62451	 32.688552	
7.68701	 32.603697	
7.7495	 32.522845	
7.812	 32.468419	
7.8745	 32.337560	
7.93699	 32.325673	
7.99949	 32.148204	
8.06198	 32.168967	
8.12448	 32.027404	
8.18698	 31.964715	
8.24947	 31.972504	
8.31197	 32.076290	
8.37446	 32.260363	
8.43696	 32.261910	
8.49946	 32.320553	
8.56195	 32.244741	
8.62445	 32.466196	
8.68694	 32.669037	
8.74944	 32.869164	
8.81194	 32.833153	
8.87443	 32.893627	
8.93693	 32.948319	
8.99942	 32.971030	
9.06192	 33.012039	
9.12442	 33.036584	
9.18691	 33.202220	
9.24941	 33.234913	
9.3119	 33.396122	
9.3744	 33.442164	
9.4369	 33.487553	
9.49939	 33.481302	
9.56189	 33.444855	
9.62438	 33.444761	
9.68688	 33.378202	
9.74938	 33.368115	
9.81187	 33.401159	
9.87437	 33.302495	
9.93686	 33.259558	
9.99936	 33.323146	
10.0619	 33.310541	
10.1244	 33.263339	
10.1868	 33.261966	
10.2493	 33.283342	
10.3118	 33.310468	
10.3743	 33.220223	
10.4368	 33.116853	
10.4993	 32.893120	
10.5618	 32.909039	
10.6243	 32.791372	
10.6868	 32.729092	
10.7493	 32.793208	
10.8118	 32.786156	
10.8743	 32.681799	
10.9368	 32.677729	
10.9993	 32.720842	
11.0618	 32.695362	
11.1243	 32.748552	
11.1868	 32.997403	
11.2493	 33.089671	
11.3118	 33.245735	
11.3743	 33.398601	
11.4368	 33.595403	
11.4993	 33.734864	
11.5618	 33.927925	
11.6243	 33.961493	
11.6868	 33.936589	
11.7492	 33.957172	
11.8117	 34.006963	
11.8742	 34.072421	
11.9367	 34.060046	
11.9992	 34.038585	
12.0617	 34.087194	
12.1242	 34.257276	
12.1867	 34.335672	
12.2492	 34.346477	
12.3117	 34.357620	
12.3742	 34.363029	
12.4367	 34.349168	
12.4992	 34.417819	
12.5617	 34.425387	
12.6242	 34.352508	
12.6867	 34.335191	
12.7492	 34.296834	
12.8117	 34.312399	
12.8742	 34.279214	
12.9367	 34.257812	
12.9992	 34.226915	
13.0617	 34.294507	
13.1242	 34.319098	
13.1867	 34.382104	
13.2492	 34.400659	
13.3116	 34.421839	
13.3741	 34.473996	
13.4366	 34.513911	
13.4991	 34.482454	
13.5616	 34.465265	
13.6241	 34.385328	
13.6866	 34.408535	
13.7491	 34.307909	
13.8116	 34.274040	
13.8741	 34.232617	
13.9366	 34.212169	
13.9991	 34.230954	
14.0616	 34.258492	
14.1241	 34.216074	
14.1866	 34.205083	
14.2491	 34.208166	
14.3116	 34.215993	
14.3741	 34.128083	
14.4366	 34.115657	
